<svg width="54" height="54" viewBox="0 0 54 54" fill="none" xmlns="http://www.w3.org/2000/svg">
<circle cx="27" cy="27" r="27" fill="#CEC6C6"/>
<path d="M41.875 26.2083C41.8809 28.2981 41.3541 30.3597 40.3375 32.225C39.1322 34.4603 37.2792 36.3404 34.9861 37.6547C32.693 38.969 30.0503 39.6657 27.3542 39.6667C25.0994 39.6721 22.8751 39.1839 20.8625 38.2417L11.125 41.25L14.3708 32.225C13.3543 30.3597 12.8275 28.2981 12.8333 26.2083C12.8344 23.7094 13.586 21.2602 15.0041 19.1349C16.4222 17.0096 18.4508 15.2921 20.8625 14.175C22.8751 13.2328 25.0994 12.7446 27.3542 12.75H28.2083C31.7691 12.9321 35.1323 14.325 37.6539 16.6622C40.1756 18.9993 41.6786 22.1164 41.875 25.4167V26.2083Z" stroke="#7E6565" stroke-width="4" stroke-linecap="round" stroke-linejoin="round"/>
</svg>
