<svg width="54" height="54" viewBox="0 0 54 54" fill="none" xmlns="http://www.w3.org/2000/svg">
<circle cx="27" cy="27" r="27" fill="#CEC6C6"/>
<path d="M40.3334 41.875V38.4583C40.3334 36.646 39.631 34.9079 38.3807 33.6264C37.1305 32.3449 35.4348 31.625 33.6667 31.625H20.3334C18.5652 31.625 16.8696 32.3449 15.6193 33.6264C14.3691 34.9079 13.6667 36.646 13.6667 38.4583V41.875M33.6667 17.9583C33.6667 21.7323 30.6819 24.7917 27 24.7917C23.3181 24.7917 20.3334 21.7323 20.3334 17.9583C20.3334 14.1844 23.3181 11.125 27 11.125C30.6819 11.125 33.6667 14.1844 33.6667 17.9583Z" stroke="#7E6565" stroke-width="4" stroke-linecap="round" stroke-linejoin="round"/>
</svg>
