<svg width="54" height="54" viewBox="0 0 54 54" fill="none" xmlns="http://www.w3.org/2000/svg">
<circle cx="27" cy="27" r="27" fill="#CEC6C6"/>
<path d="M13.905 20.15L27 27.5146L40.095 20.15M27 42.2V27.5M40.5 33.3333V21.6667C40.4995 21.1552 40.3606 20.6528 40.0973 20.21C39.834 19.7672 39.4556 19.3995 39 19.1437L28.5 13.3104C28.0439 13.0544 27.5266 12.9197 27 12.9197C26.4734 12.9197 25.9561 13.0544 25.5 13.3104L15 19.1437C14.5444 19.3995 14.166 19.7672 13.9027 20.21C13.6394 20.6528 13.5005 21.1552 13.5 21.6667V33.3333C13.5005 33.8448 13.6394 34.3471 13.9027 34.79C14.166 35.2328 14.5444 35.6005 15 35.8562L25.5 41.6896C25.9561 41.9456 26.4734 42.0803 27 42.0803C27.5266 42.0803 28.0439 41.9456 28.5 41.6896L39 35.8562C39.4556 35.6005 39.834 35.2328 40.0973 34.79C40.3606 34.3471 40.4995 33.8448 40.5 33.3333Z" stroke="#7E6565" stroke-width="4" stroke-linecap="round" stroke-linejoin="round"/>
</svg>
