<svg width="54" height="54" viewBox="0 0 54 54" fill="none" xmlns="http://www.w3.org/2000/svg">
<circle cx="27" cy="27" r="27" fill="#CEC6C6"/>
<g clip-path="url(#clip0_269_27)">
<path d="M17.875 32H16.5C15.7707 32 15.0712 31.719 14.5555 31.219C14.0397 30.7189 13.75 30.0406 13.75 29.3333V17.3333C13.75 16.6261 14.0397 15.9478 14.5555 15.4477C15.0712 14.9476 15.7707 14.6667 16.5 14.6667H28.875C29.6043 14.6667 30.3038 14.9476 30.8195 15.4477C31.3353 15.9478 31.625 16.6261 31.625 17.3333V18.6667M26.125 24H38.5C40.0188 24 41.25 25.1939 41.25 26.6667V38.6667C41.25 40.1394 40.0188 41.3333 38.5 41.3333H26.125C24.6062 41.3333 23.375 40.1394 23.375 38.6667V26.6667C23.375 25.1939 24.6062 24 26.125 24Z" stroke="#7E6565" stroke-width="4" stroke-linecap="round" stroke-linejoin="round"/>
</g>
<defs>
<clipPath id="clip0_269_27">
<rect width="33" height="32" fill="white" transform="translate(11 12)"/>
</clipPath>
</defs>
</svg>
