<svg width="55" height="56" viewBox="0 0 55 56" fill="none" xmlns="http://www.w3.org/2000/svg">
<path d="M41.25 23.3333H38.3625C37.5051 19.9523 35.7335 16.884 33.249 14.4769C30.7644 12.0699 27.6666 10.4206 24.3075 9.71664C20.9484 9.01264 17.4627 9.28209 14.2465 10.4944C11.0302 11.7067 8.21248 13.8132 6.11334 16.5746C4.0142 19.3359 2.71786 22.6414 2.37163 26.1155C2.0254 29.5895 2.64316 33.0928 4.1547 36.2272C5.66625 39.3617 8.01098 42.0016 10.9225 43.847C13.834 45.6924 17.1954 46.6693 20.625 46.6667H41.25C44.2889 46.6667 47.2034 45.4375 49.3522 43.2496C51.5011 41.0616 52.7083 38.0942 52.7083 35C52.7083 31.9058 51.5011 28.9383 49.3522 26.7504C47.2034 24.5625 44.2889 23.3333 41.25 23.3333Z" stroke="#F5F5F5" stroke-width="4" stroke-linecap="round" stroke-linejoin="round"/>
</svg>
