<svg width="54" height="54" viewBox="0 0 54 54" fill="none" xmlns="http://www.w3.org/2000/svg">
<circle cx="27" cy="27" r="27" fill="#CEC6C6"/>
<path d="M22.0403 12.2789C22.3209 11.3201 23.6791 11.3201 23.9597 12.2789L25.9178 18.9685C26.0042 19.2637 26.2217 19.5027 26.5074 19.6165L32.6682 22.071C33.5081 22.4056 33.5081 23.5944 32.6682 23.929L26.5074 26.3835C26.2217 26.4973 26.0042 26.7363 25.9178 27.0315L23.9597 33.7211C23.6791 34.6799 22.3209 34.6799 22.0403 33.7211L20.0822 27.0315C19.9958 26.7363 19.7783 26.4973 19.4926 26.3835L13.3318 23.929C12.4919 23.5944 12.4919 22.4056 13.3318 22.071L19.4926 19.6165C19.7783 19.5027 19.9958 19.2637 20.0822 18.9685L22.0403 12.2789Z" fill="#181313"/>
<path d="M33.0335 30.6389C33.2967 29.6478 34.7033 29.6478 34.9665 30.6389L35.6583 33.2436C35.7364 33.5377 35.9442 33.7802 36.2228 33.9025L38.9145 35.0844C39.7118 35.4344 39.7118 36.5656 38.9145 36.9156L36.2228 38.0975C35.9442 38.2198 35.7364 38.4623 35.6583 38.7564L34.9665 41.3611C34.7033 42.3522 33.2967 42.3522 33.0335 41.3611L32.3417 38.7564C32.2636 38.4623 32.0558 38.2198 31.7772 38.0975L29.0855 36.9156C28.2882 36.5656 28.2882 35.4344 29.0855 35.0844L31.7772 33.9025C32.0558 33.7802 32.2636 33.5377 32.3417 33.2436L33.0335 30.6389Z" fill="#181313"/>
</svg>
